<?xml version="1.0" encoding="UTF-8" standalone="no"?>
<svg
   xmlns:dc="http://purl.org/dc/elements/1.1/"
   xmlns:cc="http://creativecommons.org/ns#"
   xmlns:rdf="http://www.w3.org/1999/02/22-rdf-syntax-ns#"
   xmlns:svg="http://www.w3.org/2000/svg"
   xmlns="http://www.w3.org/2000/svg"
   xmlns:sodipodi="http://sodipodi.sourceforge.net/DTD/sodipodi-0.dtd"
   xmlns:inkscape="http://www.inkscape.org/namespaces/inkscape"
   inkscape:version="1.0 (4035a4f, 2020-05-01)"
   sodipodi:docname="그리기-1.svg"
   id="svg8"
   version="1.1"
   viewBox="0 0 24.334258 4.7958373"
   height="18.125999"
   width="91.972">
  <defs
     id="defs2" />
  <sodipodi:namedview
     inkscape:window-maximized="0"
     inkscape:window-y="23"
     inkscape:window-x="0"
     inkscape:window-height="787"
     inkscape:window-width="1252"
     units="px"
     showgrid="false"
     inkscape:document-rotation="0"
     inkscape:current-layer="text835"
     inkscape:document-units="px"
     inkscape:cy="17.090864"
     inkscape:cx="40.525634"
     inkscape:zoom="7.0959111"
     inkscape:pageshadow="2"
     inkscape:pageopacity="0.0"
     borderopacity="1.0"
     bordercolor="#666666"
     pagecolor="#ffffff"
     id="base" />
  <metadata
     id="metadata5">
    <rdf:RDF>
      <cc:Work
         rdf:about="">
        <dc:format>image/svg+xml</dc:format>
        <dc:type
           rdf:resource="http://purl.org/dc/dcmitype/StillImage" />
        <dc:title></dc:title>
      </cc:Work>
    </rdf:RDF>
  </metadata>
  <g
     id="layer1"
     inkscape:groupmode="layer"
     inkscape:label="레이어 1">
    <g
       style="font-weight:bold;font-size:4.7625px;line-height:1.25;font-family:'Hoefler Text';-inkscape-font-specification:'Hoefler Text, Bold';stroke-width:0.264583"
       id="text835"
       aria-label="늑대 온에어">
      <path
         id="path837"
         style="font-style:normal;font-variant:normal;font-weight:bold;font-stretch:normal;font-size:4.76250000000000018px;font-family:'Heir of Light OTF Bold';-inkscape-font-specification:'Heir of Light OTF Bold, Bold';stroke-width:0.264583;fill:#1E1D29;fill-opacity:0.92156863"
         d="M 1.6675315,3.3945007 C 2.2437939,3.3516382 2.7676689,3.3278257 3.2629689,3.3325882 V 4.7661007 H 3.3915564 C 3.4868064,4.5517882 3.6106314,4.4374882 3.7773189,4.3327132 V 3.3278257 c 0.023813,-0.0762 0.061913,-0.13335 0.1476375,-0.1905 L 3.4391814,2.8753882 c -0.061913,0.05715 -0.142875,0.1000125 -0.219075,0.1190625 -0.4333875,0.042863 -1.1429999,0.061913 -1.7478374,0.05715 -0.085725,0 -0.2524125,-0.01905 -0.333375,-0.052388 -0.0381,-0.014288 -0.090488,-0.05715 -0.123825,-0.1143 l -0.066675,0.0381 c 0.028575,0.080962 0.0619125,0.17145 0.104775,0.2143125 l 0.3762375,0.371475 z M 4.7345813,2.5896383 4.7631563,2.5563008 4.3916814,2.0086133 3.9535314,2.1514883 C 3.1010439,2.1895883 1.7723065,2.2515008 0.900769,2.2276883 0.73884401,2.2229258 0.49119402,2.1753008 0.36260652,2.1276758 0.30069402,2.0943383 0.24830653,2.0419508 0.23401903,1.9657508 l -0.09525,0.033338 c 0.01905,0.09525 0.0333375,0.180975 0.0809625,0.238125 L 0.60073151,2.7039383 0.919819,2.5991633 c 0.8620125,-0.052388 2.1955124,-0.1143 3.2337374,-0.1000125 z M 1.786594,0.40365084 0.7912315,0.27982585 l -0.028575,0.104775 C 0.948394,0.43222584 1.129369,0.56557584 1.129369,0.72750083 V 1.4037758 c -0.00476,0.104775 -0.028575,0.3000375 -0.047625,0.409575 0.1524,-0.023813 0.3762375,-0.052388 0.5381625,-0.05715 0.5619749,-0.01905 1.3287374,-0.052388 1.8716624,-0.05715 l 0.47625,0.028575 0.023813,-0.085725 -0.3476625,-0.409575 -0.3857625,0.1381125 c -0.4238625,0.047625 -1.038225,0.05715 -1.5954374,0.05715 V 0.67987583 Z" />
      <path
         id="path839"
         style="font-style:normal;font-variant:normal;font-weight:bold;font-stretch:normal;font-size:4.76250000000000018px;font-family:'Heir of Light OTF Bold';-inkscape-font-specification:'Heir of Light OTF Bold, Bold';stroke-width:0.264583;fill:#1E1D29;fill-opacity:0.92156863"
         d="m 8.0596991,0.74655083 0.123825,-0.29527499 -1.019175,-0.22859999 -0.042863,0.1095375 c 0.2143125,0.0809625 0.4238625,0.20954999 0.4238625,0.42386248 V 3.5754757 c 0,0.3190875 0.033338,0.542925 0.033338,0.904875 h 0.1381125 c 0.042863,-0.36195 0.1905,-0.6048375 0.3429,-0.7858125 V 2.3038883 c 0.1571625,-0.00953 0.3190875,-0.01905 0.4810125,-0.023813 v 1.5573374 c 0,0.314325 0.028575,0.5381625 0.028575,0.9001125 h 0.142875 c 0.0381,-0.36195 0.1857375,-0.600075 0.3381374,-0.78105 V 0.49413834 l 0.1285875,-0.29527499 -1.0525124,-0.22859999 -0.0381,0.1095375 c 0.20955,0.08096249 0.4524375,0.20478749 0.4524375,0.42386248 V 1.9324133 c -0.1666875,0.00953 -0.3286125,0.014288 -0.4810125,0.01905 z M 5.7308367,3.3230632 c 0.40005,-0.0381 0.8048624,-0.1190625 1.0906124,-0.219075 0.2333625,-0.080963 0.5334,-0.2714625 0.6524625,-0.4810124 l -0.1524,-0.00953 C 7.2357866,2.6801258 7.0167116,2.7420383 6.8690741,2.7849007 6.5976116,2.8563382 6.1927992,2.9230132 5.9451492,2.9325382 H 5.8546617 V 1.3371008 c 0.276225,-0.01905 0.5762625,-0.0381 0.8191499,-0.042863 l 0.4333875,0.00953 0.0381,-0.066675 L 6.8357366,0.87037583 6.5452241,0.97991332 c -0.3809999,0.0381 -0.6667499,0.0381 -1.1144249,0.0238125 -0.1000125,-0.004762 -0.1905,-0.028575 -0.2714625,-0.05715 -0.0381,-0.01905 -0.090488,-0.047625 -0.123825,-0.09525 l -0.05715,0.0381 c 0.023813,0.066675 0.085725,0.19526247 0.123825,0.23812497 l 0.2333625,0.2428875 v 1.6478249 c 0,0.0762 -0.00476,0.2333625 -0.014288,0.3429 z" />
      <path
         id="path841"
         style="font-style:normal;font-variant:normal;font-weight:bold;font-stretch:normal;font-size:4.76250000000000018px;font-family:'Heir of Light OTF Bold';-inkscape-font-specification:'Heir of Light OTF Bold, Bold';stroke-width:0.264583;fill:#1E1D29;fill-opacity:0.92156863"
         d="m 13.531811,0.20362585 -0.747712,-0.20002499 -0.0381,0.09525 c 0.195262,0.06191249 0.319087,0.16192499 0.333375,0.24764999 -0.600075,-0.01905 -1.062038,0.36671248 -1.062038,0.89058745 0,0.4905375 0.366713,0.8048625 0.866775,0.8810625 v 0.381 c -0.471487,0.014288 -0.93345,0.01905 -1.304925,0.00476 -0.161925,-0.00476 -0.409575,-0.042862 -0.538162,-0.090487 -0.06191,-0.0381 -0.1143,-0.090488 -0.128588,-0.161925 l -0.09525,0.033338 c 0.01905,0.090488 0.03334,0.180975 0.08096,0.238125 l 0.381,0.4667249 0.319087,-0.1000125 c 0.862013,-0.052388 2.195513,-0.1143 3.233738,-0.104775 l 0.581025,0.090488 0.02858,-0.0381 -0.371475,-0.5381624 -0.43815,0.1285875 c -0.352425,0.01905 -0.785813,0.0381 -1.233488,0.05715 V 2.1086258 c 0.47625,-0.080963 0.8763,-0.3667125 0.885825,-0.809625 0.0095,-0.49529997 -0.428625,-0.76676246 -0.871537,-0.69056246 -0.09049,0.0142875 -0.1524,0.0619125 -0.176213,0.13334999 0.03334,0 0.0762,0.004763 0.1143,0.009525 0.214313,0.0333375 0.395288,0.20002499 0.395288,0.52387497 0,0.2667 -0.223838,0.5095875 -0.59055,0.5095875 -0.314325,0 -0.581025,-0.219075 -0.581025,-0.542925 0,-0.46196247 0.385762,-0.70008746 0.8001,-0.68579996 z m 1.300163,4.30529985 0.01905,-0.080963 -0.404813,-0.447675 -0.414337,0.180975 c -0.414338,0.042863 -1.042988,0.052388 -1.5621,0.0381 v -0.6858 l 0.09049,-0.2143125 -0.904875,-0.104775 -0.03334,0.085725 c 0.1524,0.061913 0.257175,0.13335 0.295275,0.2714625 0.03334,0.200025 0.04286,0.4238625 0.0381,0.6048375 -0.0048,0.1095375 -0.03334,0.2905125 -0.05239,0.40005 0.157163,-0.023813 0.385763,-0.047625 0.547688,-0.047625 0.5334,-0.00953 1.2573,-0.033338 1.776412,-0.033338 z" />
      <path
         id="path843"
         style="font-style:normal;font-variant:normal;font-weight:bold;font-stretch:normal;font-size:4.76250000000000018px;font-family:'Heir of Light OTF Bold';-inkscape-font-specification:'Heir of Light OTF Bold, Bold';stroke-width:0.264583;fill:#1E1D29;fill-opacity:0.92156863"
         d="m 17.237929,0.98467582 -0.719137,-0.22859999 -0.05239,0.1095375 c 0.176213,0.0523875 0.314325,0.20002497 0.32385,0.30956247 -0.561975,0 -1.000125,0.390525 -1.000125,0.9382125 0,0.5762625 0.471488,0.9667874 1.057275,0.9667874 0.547688,0 1.038225,-0.3524249 1.057275,-0.9191624 v -0.00953 l 0.161925,0.161925 0.1905,-0.1000125 0.06191,-0.00953 v 1.3715999 c 0,0.3190875 0.02858,0.542925 0.02858,0.904875 h 0.142875 c 0.04286,-0.36195 0.17145,-0.6048375 0.328612,-0.7858125 V 0.74655083 l 0.123825,-0.29527499 -1.000125,-0.22859999 -0.0381,0.1095375 c 0.20955,0.0809625 0.414338,0.20954999 0.414338,0.42386248 V 1.8752633 l -0.109538,0.00953 c -0.109537,0 -0.223837,0.00476 -0.328612,0 -0.0048,-0.00476 -0.01429,-0.00953 -0.01905,-0.00953 -0.109538,-0.3286125 -0.423863,-0.4905375 -0.762,-0.447675 -0.09049,0.014288 -0.1524,0.071438 -0.176213,0.1476375 0.03334,-0.00953 0.0762,-0.00953 0.1143,0.00476 0.185738,0.052388 0.357188,0.219075 0.347663,0.5572125 -0.0095,0.2809875 -0.204788,0.55245 -0.519113,0.55245 -0.276225,0 -0.519112,-0.257175 -0.523875,-0.59055 -0.01429,-0.4953 0.381,-0.7286625 0.719138,-0.733425 z m 2.509838,-0.49053748 0.123825,-0.29527499 -1.042988,-0.22859999 -0.04286,0.1095375 c 0.214312,0.08096249 0.452437,0.20478749 0.452437,0.42386248 V 3.8374132 c 0,0.314325 0.02858,0.5381625 0.02858,0.9001125 h 0.142875 c 0.04286,-0.36195 0.180975,-0.600075 0.338138,-0.78105 z" />
      <path
         id="path845"
         style="font-style:normal;font-variant:normal;font-weight:bold;font-stretch:normal;font-size:4.76250000000000018px;font-family:'Heir of Light OTF Bold';-inkscape-font-specification:'Heir of Light OTF Bold, Bold';stroke-width:0.264583;fill:#1E1D29;fill-opacity:0.92156863"
         d="m 22.234685,0.88942583 -0.733425,-0.238125 -0.04763,0.1000125 c 0.176213,0.05715 0.3048,0.18573749 0.314325,0.29527497 -0.585787,0 -1.081087,0.4238625 -1.081087,1.0239375 0,0.6238875 0.490537,1.0334624 1.157287,1.0429874 0.614362,0.00953 1.16205,-0.3667124 1.171575,-0.9858374 0,-0.0381 -0.0048,-0.0762 -0.0048,-0.1143 l 0.276225,0.2809875 0.195263,-0.1190625 0.338137,-0.047625 v 1.7097374 c 0,0.314325 0.02858,0.5381625 0.02858,0.9001125 h 0.13335 c 0.04286,-0.36195 0.180975,-0.6477 0.366713,-0.78105 V 0.49413834 l 0.123825,-0.29527499 -1.062038,-0.22859999 -0.0381,0.1095375 c 0.20955,0.08096249 0.447675,0.20478749 0.447675,0.42386248 V 1.8038258 l -0.409575,0.033338 c -0.109537,0 -0.233362,0 -0.338137,-0.00476 -0.04286,-0.01905 -0.09049,-0.0381 -0.123825,-0.066675 -0.138113,-0.3286125 -0.471488,-0.4953 -0.847725,-0.4524375 -0.08573,0.014288 -0.157163,0.085725 -0.180975,0.161925 0.0381,-0.00476 0.09525,-0.00953 0.128587,-0.00476 0.242888,0.0381 0.43815,0.257175 0.433388,0.638175 -0.0048,0.32385 -0.2286,0.6238875 -0.623888,0.6238875 -0.347662,0 -0.619124,-0.28575 -0.619124,-0.676275 0,-0.5286375 0.409575,-0.8048625 0.819149,-0.8048625 z" />
    </g>
  </g>
</svg>
